<svg xmlns="http://www.w3.org/2000/svg" viewBox="0 0 920.55 242.71"><title>audelio-logo-bl</title><path d="M788.81,221.83q-22.33-20.87-22.33-55t22.2-54.57q22.2-20.48,55-20.48t54.84,20.48q22.06,20.48,22.07,54.57t-21.93,55q-21.94,20.88-54.7,20.88T788.81,221.83Zm76.77-27.22q9-9.51,9-27.48t-9.25-27.35a29.78,29.78,0,0,0-21.93-9.38,29.35,29.35,0,0,0-21.8,9.38q-9.12,9.38-9.12,27.35t9.38,27.48q9.38,9.51,22.07,9.51A28.74,28.74,0,0,0,865.58,194.61Z"/><path d="M710.5,242.71V91.81h46v150.9Z"/><path d="M654.93,242.71V0H700.5V242.71Z"/><path d="M590.74,193.74c-.26.29-.51.59-.78.87a28.74,28.74,0,0,1-21.67,9.51q-12.69,0-22.07-9.51t-9.38-27.48q0-18,9.12-27.35a29.35,29.35,0,0,1,21.8-9.38,29.78,29.78,0,0,1,21.93,9.38q9.25,9.38,9.25,27.35a51.58,51.58,0,0,1-2.09,15.35h46.8a92.77,92.77,0,0,0,1.28-15.61q0-34.09-22.07-54.57T568,91.81q-32.77,0-55,20.48t-22.2,54.57q0,34.09,22.33,55t55.1,20.88q32.76,0,54.7-20.88a67.69,67.69,0,0,0,17.87-28.09Z"/><path d="M434.56,0V5.32h.07V112.25q-15-20.17-42.58-20.19-28.06,0-47.57,21.24T325,167.52q0,33,19.5,54.08t46.91,21.11q27,0,43.24-22.54v22h46.23V0Zm.07,174.66q-1.7,12.13-9.25,19.51-9.75,9.5-22.4,9.5t-22.4-9.37q-9.75-9.36-9.75-26.78t9.75-26.91q9.75-9.5,22.4-9.5t22.4,9.37q7.56,7.27,9.25,19.38Z"/><path d="M269.4,91.26V172q0,14.39-7.59,22.26t-20.92,7.86q-13.33,0-20.92-7.86T212.36,172V91.26H167.05v86.89q0,29.32,15.86,46.38t41.45,17.06q30.92,0,45-23.45V240h.08v1.93H315V91.26Z"/><path d="M111.46,92.06v19.47q-15.2-21.06-43.6-21.07T19.73,111.92Q0,133.39,0,166.72t19.73,54.66q19.73,21.33,47.46,21.33t44.26-23.46v23.46h45.6V92.06Zm-9.87,101.59q-9.87,9.6-22.66,9.6t-22.67-9.47q-9.87-9.46-9.87-27.06t9.87-27.2q9.86-9.6,22.67-9.6t22.66,9.47q9.86,9.47,9.87,27.06T101.59,193.65Z"/></svg>